<mxfile host="Electron" agent="Mozilla/5.0 (Windows NT 10.0; Win64; x64) AppleWebKit/537.36 (KHTML, like Gecko) draw.io/26.0.16 Chrome/132.0.6834.196 Electron/34.2.0 Safari/537.36" version="26.0.16">
  <diagram name="Page-1" id="dmgN-2dFcBZjcpDdf_IP">
    <mxGraphModel dx="2625" dy="2996" grid="1" gridSize="10" guides="1" tooltips="1" connect="1" arrows="1" fold="1" page="1" pageScale="1" pageWidth="850" pageHeight="1100" math="0" shadow="0">
      <root>
        <mxCell id="0" />
        <mxCell id="1" parent="0" />
        <mxCell id="gn0eF_NOriYN2kiscryP-1" value="Business" style="rounded=0;whiteSpace=wrap;html=1;" parent="1" vertex="1">
          <mxGeometry x="-1451.5" y="-1790" width="100" height="40" as="geometry" />
        </mxCell>
        <mxCell id="gn0eF_NOriYN2kiscryP-2" value="User" style="rounded=0;whiteSpace=wrap;html=1;" parent="1" vertex="1">
          <mxGeometry x="-1116.25" y="-1597.25" width="75" height="37.5" as="geometry" />
        </mxCell>
        <mxCell id="gn0eF_NOriYN2kiscryP-6" style="edgeStyle=orthogonalEdgeStyle;rounded=0;orthogonalLoop=1;jettySize=auto;html=1;entryX=0;entryY=0.5;entryDx=0;entryDy=0;" parent="1" source="gn0eF_NOriYN2kiscryP-3" target="TzP5SXt4CAiUVtm45wrK-21" edge="1">
          <mxGeometry relative="1" as="geometry" />
        </mxCell>
        <mxCell id="fqUfnXZrczNYxhRlF89O-2" style="edgeStyle=orthogonalEdgeStyle;rounded=0;orthogonalLoop=1;jettySize=auto;html=1;exitX=0.5;exitY=0;exitDx=0;exitDy=0;entryX=0.5;entryY=1;entryDx=0;entryDy=0;" edge="1" parent="1" source="gn0eF_NOriYN2kiscryP-3" target="TzP5SXt4CAiUVtm45wrK-18">
          <mxGeometry relative="1" as="geometry" />
        </mxCell>
        <mxCell id="gn0eF_NOriYN2kiscryP-3" value="Review" style="rounded=0;whiteSpace=wrap;html=1;" parent="1" vertex="1">
          <mxGeometry x="-1442.75" y="-1596" width="82.5" height="35" as="geometry" />
        </mxCell>
        <mxCell id="gn0eF_NOriYN2kiscryP-15" value="" style="shape=flexArrow;endArrow=classic;html=1;rounded=0;width=6.666666666666666;endSize=2.6857142857142855;endWidth=12.063492063492063;entryX=1;entryY=0.5;entryDx=0;entryDy=0;exitX=0;exitY=0.5;exitDx=0;exitDy=0;" parent="1" source="KU4ls_06ufXbq-J6iHtu-7" target="TzP5SXt4CAiUVtm45wrK-25" edge="1">
          <mxGeometry width="50" height="50" relative="1" as="geometry">
            <mxPoint x="-1111.5" y="-1770" as="sourcePoint" />
            <mxPoint x="-1081.5" y="-1670" as="targetPoint" />
          </mxGeometry>
        </mxCell>
        <mxCell id="TzP5SXt4CAiUVtm45wrK-1" value="&lt;u&gt;business_id&lt;/u&gt;" style="ellipse;whiteSpace=wrap;html=1;" parent="1" vertex="1">
          <mxGeometry x="-1391.5" y="-1915" width="100" height="45" as="geometry" />
        </mxCell>
        <mxCell id="TzP5SXt4CAiUVtm45wrK-2" value="name" style="ellipse;whiteSpace=wrap;html=1;" parent="1" vertex="1">
          <mxGeometry x="-1471.5" y="-1940" width="70" height="35" as="geometry" />
        </mxCell>
        <mxCell id="TzP5SXt4CAiUVtm45wrK-4" value="city" style="ellipse;whiteSpace=wrap;html=1;" parent="1" vertex="1">
          <mxGeometry x="-1541.5" y="-1932.5" width="60" height="32.5" as="geometry" />
        </mxCell>
        <mxCell id="TzP5SXt4CAiUVtm45wrK-5" value="state" style="ellipse;whiteSpace=wrap;html=1;" parent="1" vertex="1">
          <mxGeometry x="-1591.5" y="-1882.5" width="67.5" height="27.5" as="geometry" />
        </mxCell>
        <mxCell id="TzP5SXt4CAiUVtm45wrK-7" value="is_open" style="ellipse;whiteSpace=wrap;html=1;" parent="1" vertex="1">
          <mxGeometry x="-1606.5" y="-1742.5" width="85" height="37.5" as="geometry" />
        </mxCell>
        <mxCell id="TzP5SXt4CAiUVtm45wrK-8" value="review_count" style="ellipse;whiteSpace=wrap;html=1;" parent="1" vertex="1">
          <mxGeometry x="-1609" y="-1790" width="90" height="40" as="geometry" />
        </mxCell>
        <mxCell id="TzP5SXt4CAiUVtm45wrK-9" value="stars" style="ellipse;whiteSpace=wrap;html=1;" parent="1" vertex="1">
          <mxGeometry x="-1604" y="-1840" width="80" height="32.5" as="geometry" />
        </mxCell>
        <mxCell id="TzP5SXt4CAiUVtm45wrK-11" value="" style="endArrow=none;html=1;rounded=0;entryX=0.5;entryY=1;entryDx=0;entryDy=0;exitX=0.75;exitY=0;exitDx=0;exitDy=0;" parent="1" source="gn0eF_NOriYN2kiscryP-1" target="TzP5SXt4CAiUVtm45wrK-1" edge="1">
          <mxGeometry width="50" height="50" relative="1" as="geometry">
            <mxPoint x="-1281.5" y="-1920" as="sourcePoint" />
            <mxPoint x="-1231.5" y="-1970" as="targetPoint" />
          </mxGeometry>
        </mxCell>
        <mxCell id="TzP5SXt4CAiUVtm45wrK-12" value="" style="endArrow=none;html=1;rounded=0;entryX=1;entryY=0.5;entryDx=0;entryDy=0;exitX=0;exitY=0.75;exitDx=0;exitDy=0;" parent="1" source="gn0eF_NOriYN2kiscryP-1" target="TzP5SXt4CAiUVtm45wrK-7" edge="1">
          <mxGeometry width="50" height="50" relative="1" as="geometry">
            <mxPoint x="-1341.5" y="-1750" as="sourcePoint" />
            <mxPoint x="-1291.5" y="-1800" as="targetPoint" />
          </mxGeometry>
        </mxCell>
        <mxCell id="TzP5SXt4CAiUVtm45wrK-13" value="" style="endArrow=none;html=1;rounded=0;entryX=0.5;entryY=1;entryDx=0;entryDy=0;exitX=0.5;exitY=0;exitDx=0;exitDy=0;" parent="1" source="gn0eF_NOriYN2kiscryP-1" target="TzP5SXt4CAiUVtm45wrK-2" edge="1">
          <mxGeometry width="50" height="50" relative="1" as="geometry">
            <mxPoint x="-1341.5" y="-1750" as="sourcePoint" />
            <mxPoint x="-1291.5" y="-1800" as="targetPoint" />
          </mxGeometry>
        </mxCell>
        <mxCell id="TzP5SXt4CAiUVtm45wrK-14" value="" style="endArrow=none;html=1;rounded=0;entryX=0.5;entryY=1;entryDx=0;entryDy=0;exitX=0.25;exitY=0;exitDx=0;exitDy=0;" parent="1" source="gn0eF_NOriYN2kiscryP-1" target="TzP5SXt4CAiUVtm45wrK-4" edge="1">
          <mxGeometry width="50" height="50" relative="1" as="geometry">
            <mxPoint x="-1341.5" y="-1750" as="sourcePoint" />
            <mxPoint x="-1291.5" y="-1800" as="targetPoint" />
          </mxGeometry>
        </mxCell>
        <mxCell id="TzP5SXt4CAiUVtm45wrK-15" value="" style="endArrow=none;html=1;rounded=0;entryX=1;entryY=0.5;entryDx=0;entryDy=0;exitX=0;exitY=0.5;exitDx=0;exitDy=0;" parent="1" source="gn0eF_NOriYN2kiscryP-1" target="TzP5SXt4CAiUVtm45wrK-8" edge="1">
          <mxGeometry width="50" height="50" relative="1" as="geometry">
            <mxPoint x="-1341.5" y="-1750" as="sourcePoint" />
            <mxPoint x="-1291.5" y="-1800" as="targetPoint" />
          </mxGeometry>
        </mxCell>
        <mxCell id="TzP5SXt4CAiUVtm45wrK-16" value="" style="endArrow=none;html=1;rounded=0;entryX=1;entryY=0.5;entryDx=0;entryDy=0;exitX=0;exitY=0.25;exitDx=0;exitDy=0;" parent="1" source="gn0eF_NOriYN2kiscryP-1" target="TzP5SXt4CAiUVtm45wrK-9" edge="1">
          <mxGeometry width="50" height="50" relative="1" as="geometry">
            <mxPoint x="-1341.5" y="-1750" as="sourcePoint" />
            <mxPoint x="-1291.5" y="-1800" as="targetPoint" />
          </mxGeometry>
        </mxCell>
        <mxCell id="TzP5SXt4CAiUVtm45wrK-17" value="" style="endArrow=none;html=1;rounded=0;entryX=1;entryY=1;entryDx=0;entryDy=0;exitX=0;exitY=0;exitDx=0;exitDy=0;" parent="1" source="gn0eF_NOriYN2kiscryP-1" target="TzP5SXt4CAiUVtm45wrK-5" edge="1">
          <mxGeometry width="50" height="50" relative="1" as="geometry">
            <mxPoint x="-1341.5" y="-1750" as="sourcePoint" />
            <mxPoint x="-1291.5" y="-1800" as="targetPoint" />
          </mxGeometry>
        </mxCell>
        <mxCell id="TzP5SXt4CAiUVtm45wrK-18" value="has" style="rhombus;whiteSpace=wrap;html=1;" parent="1" vertex="1">
          <mxGeometry x="-1444" y="-1700" width="85" height="50" as="geometry" />
        </mxCell>
        <mxCell id="TzP5SXt4CAiUVtm45wrK-20" value="" style="endArrow=none;html=1;rounded=0;entryX=0.5;entryY=1;entryDx=0;entryDy=0;exitX=0.5;exitY=0;exitDx=0;exitDy=0;" parent="1" source="TzP5SXt4CAiUVtm45wrK-18" target="gn0eF_NOriYN2kiscryP-1" edge="1">
          <mxGeometry width="50" height="50" relative="1" as="geometry">
            <mxPoint x="-1321.5" y="-1610" as="sourcePoint" />
            <mxPoint x="-1271.5" y="-1660" as="targetPoint" />
          </mxGeometry>
        </mxCell>
        <mxCell id="TzP5SXt4CAiUVtm45wrK-21" value="writes" style="rhombus;whiteSpace=wrap;html=1;" parent="1" vertex="1">
          <mxGeometry x="-1275" y="-1607.25" width="80" height="57.5" as="geometry" />
        </mxCell>
        <mxCell id="TzP5SXt4CAiUVtm45wrK-24" value="" style="endArrow=none;html=1;rounded=0;entryX=0;entryY=0.5;entryDx=0;entryDy=0;exitX=1;exitY=0.5;exitDx=0;exitDy=0;" parent="1" source="TzP5SXt4CAiUVtm45wrK-21" target="gn0eF_NOriYN2kiscryP-2" edge="1">
          <mxGeometry width="50" height="50" relative="1" as="geometry">
            <mxPoint x="-1190" y="-1578" as="sourcePoint" />
            <mxPoint x="-1201.25" y="-1606" as="targetPoint" />
          </mxGeometry>
        </mxCell>
        <mxCell id="TzP5SXt4CAiUVtm45wrK-25" value="has" style="rhombus;whiteSpace=wrap;html=1;" parent="1" vertex="1">
          <mxGeometry x="-1301.5" y="-1795" width="80" height="50" as="geometry" />
        </mxCell>
        <mxCell id="TzP5SXt4CAiUVtm45wrK-26" value="" style="endArrow=none;html=1;rounded=0;entryX=0;entryY=0.5;entryDx=0;entryDy=0;exitX=1;exitY=0.5;exitDx=0;exitDy=0;" parent="1" source="gn0eF_NOriYN2kiscryP-1" target="TzP5SXt4CAiUVtm45wrK-25" edge="1">
          <mxGeometry width="50" height="50" relative="1" as="geometry">
            <mxPoint x="-1231.5" y="-1710" as="sourcePoint" />
            <mxPoint x="-1181.5" y="-1760" as="targetPoint" />
          </mxGeometry>
        </mxCell>
        <mxCell id="TzP5SXt4CAiUVtm45wrK-27" value="&lt;u&gt;review_id&lt;/u&gt;" style="ellipse;whiteSpace=wrap;html=1;" parent="1" vertex="1">
          <mxGeometry x="-1541.5" y="-1607.25" width="60" height="40" as="geometry" />
        </mxCell>
        <mxCell id="TzP5SXt4CAiUVtm45wrK-28" value="stars" style="ellipse;whiteSpace=wrap;html=1;" parent="1" vertex="1">
          <mxGeometry x="-1536.5" y="-1553.5" width="55" height="35" as="geometry" />
        </mxCell>
        <mxCell id="TzP5SXt4CAiUVtm45wrK-29" value="date" style="ellipse;whiteSpace=wrap;html=1;" parent="1" vertex="1">
          <mxGeometry x="-1471.5" y="-1523.5" width="70" height="35" as="geometry" />
        </mxCell>
        <mxCell id="TzP5SXt4CAiUVtm45wrK-30" value="text" style="ellipse;whiteSpace=wrap;html=1;" parent="1" vertex="1">
          <mxGeometry x="-1391.5" y="-1526" width="75" height="30" as="geometry" />
        </mxCell>
        <mxCell id="TzP5SXt4CAiUVtm45wrK-31" value="" style="endArrow=none;html=1;rounded=0;entryX=0;entryY=0.25;entryDx=0;entryDy=0;exitX=1;exitY=0.5;exitDx=0;exitDy=0;" parent="1" source="TzP5SXt4CAiUVtm45wrK-27" target="gn0eF_NOriYN2kiscryP-3" edge="1">
          <mxGeometry width="50" height="50" relative="1" as="geometry">
            <mxPoint x="-1490" y="-1496" as="sourcePoint" />
            <mxPoint x="-1440" y="-1546" as="targetPoint" />
          </mxGeometry>
        </mxCell>
        <mxCell id="TzP5SXt4CAiUVtm45wrK-32" value="" style="endArrow=none;html=1;rounded=0;entryX=0;entryY=0.75;entryDx=0;entryDy=0;exitX=1;exitY=0;exitDx=0;exitDy=0;" parent="1" source="TzP5SXt4CAiUVtm45wrK-28" target="gn0eF_NOriYN2kiscryP-3" edge="1">
          <mxGeometry width="50" height="50" relative="1" as="geometry">
            <mxPoint x="-1550" y="-1446" as="sourcePoint" />
            <mxPoint x="-1500" y="-1496" as="targetPoint" />
          </mxGeometry>
        </mxCell>
        <mxCell id="TzP5SXt4CAiUVtm45wrK-33" value="" style="endArrow=none;html=1;rounded=0;entryX=0.5;entryY=0;entryDx=0;entryDy=0;exitX=0.25;exitY=1;exitDx=0;exitDy=0;" parent="1" source="gn0eF_NOriYN2kiscryP-3" target="TzP5SXt4CAiUVtm45wrK-29" edge="1">
          <mxGeometry width="50" height="50" relative="1" as="geometry">
            <mxPoint x="-1490" y="-1476" as="sourcePoint" />
            <mxPoint x="-1440" y="-1526" as="targetPoint" />
          </mxGeometry>
        </mxCell>
        <mxCell id="TzP5SXt4CAiUVtm45wrK-34" value="" style="endArrow=none;html=1;rounded=0;entryX=0.5;entryY=0;entryDx=0;entryDy=0;exitX=0.75;exitY=1;exitDx=0;exitDy=0;" parent="1" source="gn0eF_NOriYN2kiscryP-3" target="TzP5SXt4CAiUVtm45wrK-30" edge="1">
          <mxGeometry width="50" height="50" relative="1" as="geometry">
            <mxPoint x="-1360" y="-1466" as="sourcePoint" />
            <mxPoint x="-1310" y="-1516" as="targetPoint" />
          </mxGeometry>
        </mxCell>
        <mxCell id="TzP5SXt4CAiUVtm45wrK-35" value="&lt;u&gt;user_id&lt;/u&gt;" style="ellipse;whiteSpace=wrap;html=1;" parent="1" vertex="1">
          <mxGeometry x="-1041.25" y="-1640" width="69.75" height="32.75" as="geometry" />
        </mxCell>
        <mxCell id="TzP5SXt4CAiUVtm45wrK-36" value="name" style="ellipse;whiteSpace=wrap;html=1;" parent="1" vertex="1">
          <mxGeometry x="-1012.5" y="-1593.63" width="57.5" height="30.25" as="geometry" />
        </mxCell>
        <mxCell id="TzP5SXt4CAiUVtm45wrK-37" value="review_count" style="ellipse;whiteSpace=wrap;html=1;" parent="1" vertex="1">
          <mxGeometry x="-1029.75" y="-1549.75" width="88.25" height="36.5" as="geometry" />
        </mxCell>
        <mxCell id="TzP5SXt4CAiUVtm45wrK-38" value="yelping_since" style="ellipse;whiteSpace=wrap;html=1;" parent="1" vertex="1">
          <mxGeometry x="-1102.25" y="-1518.5" width="89.75" height="36.5" as="geometry" />
        </mxCell>
        <mxCell id="TzP5SXt4CAiUVtm45wrK-39" value="average_stars" style="ellipse;whiteSpace=wrap;html=1;" parent="1" vertex="1">
          <mxGeometry x="-1195" y="-1540" width="92.75" height="34" as="geometry" />
        </mxCell>
        <mxCell id="TzP5SXt4CAiUVtm45wrK-41" value="" style="endArrow=none;html=1;rounded=0;entryX=0.587;entryY=0.925;entryDx=0;entryDy=0;exitX=0.15;exitY=0;exitDx=0;exitDy=0;exitPerimeter=0;entryPerimeter=0;" parent="1" source="KU4ls_06ufXbq-J6iHtu-7" target="KU4ls_06ufXbq-J6iHtu-9" edge="1">
          <mxGeometry width="50" height="50" relative="1" as="geometry">
            <mxPoint x="-1091.5" y="-1810" as="sourcePoint" />
            <mxPoint x="-1113.215728752538" y="-1872.3223304703363" as="targetPoint" />
          </mxGeometry>
        </mxCell>
        <mxCell id="TzP5SXt4CAiUVtm45wrK-42" value="" style="endArrow=none;html=1;rounded=0;entryX=0;entryY=1;entryDx=0;entryDy=0;exitX=0.75;exitY=0;exitDx=0;exitDy=0;" parent="1" source="gn0eF_NOriYN2kiscryP-2" target="TzP5SXt4CAiUVtm45wrK-35" edge="1">
          <mxGeometry width="50" height="50" relative="1" as="geometry">
            <mxPoint x="-1054" y="-1600" as="sourcePoint" />
            <mxPoint x="-761.25" y="-1616" as="targetPoint" />
          </mxGeometry>
        </mxCell>
        <mxCell id="TzP5SXt4CAiUVtm45wrK-43" value="" style="endArrow=none;html=1;rounded=0;entryX=0;entryY=0.5;entryDx=0;entryDy=0;exitX=1;exitY=0.5;exitDx=0;exitDy=0;" parent="1" source="gn0eF_NOriYN2kiscryP-2" target="TzP5SXt4CAiUVtm45wrK-36" edge="1">
          <mxGeometry width="50" height="50" relative="1" as="geometry">
            <mxPoint x="-811.25" y="-1566" as="sourcePoint" />
            <mxPoint x="-761.25" y="-1616" as="targetPoint" />
          </mxGeometry>
        </mxCell>
        <mxCell id="TzP5SXt4CAiUVtm45wrK-44" value="" style="endArrow=none;html=1;rounded=0;entryX=0;entryY=0;entryDx=0;entryDy=0;exitX=1;exitY=1;exitDx=0;exitDy=0;" parent="1" source="gn0eF_NOriYN2kiscryP-2" target="TzP5SXt4CAiUVtm45wrK-37" edge="1">
          <mxGeometry width="50" height="50" relative="1" as="geometry">
            <mxPoint x="-811.25" y="-1566" as="sourcePoint" />
            <mxPoint x="-761.25" y="-1616" as="targetPoint" />
          </mxGeometry>
        </mxCell>
        <mxCell id="TzP5SXt4CAiUVtm45wrK-45" value="" style="endArrow=none;html=1;rounded=0;entryX=0.5;entryY=0;entryDx=0;entryDy=0;exitX=0.75;exitY=1;exitDx=0;exitDy=0;" parent="1" source="gn0eF_NOriYN2kiscryP-2" target="TzP5SXt4CAiUVtm45wrK-38" edge="1">
          <mxGeometry width="50" height="50" relative="1" as="geometry">
            <mxPoint x="-811.25" y="-1566" as="sourcePoint" />
            <mxPoint x="-761.25" y="-1616" as="targetPoint" />
          </mxGeometry>
        </mxCell>
        <mxCell id="TzP5SXt4CAiUVtm45wrK-46" value="" style="endArrow=none;html=1;rounded=0;entryX=0.723;entryY=0.023;entryDx=0;entryDy=0;exitX=0.25;exitY=1;exitDx=0;exitDy=0;entryPerimeter=0;" parent="1" source="gn0eF_NOriYN2kiscryP-2" target="TzP5SXt4CAiUVtm45wrK-39" edge="1">
          <mxGeometry width="50" height="50" relative="1" as="geometry">
            <mxPoint x="-811.25" y="-1566" as="sourcePoint" />
            <mxPoint x="-761.25" y="-1616" as="targetPoint" />
          </mxGeometry>
        </mxCell>
        <mxCell id="KU4ls_06ufXbq-J6iHtu-2" value="" style="endArrow=none;html=1;rounded=0;entryX=0.5;entryY=1;entryDx=0;entryDy=0;exitX=0.5;exitY=0;exitDx=0;exitDy=0;" parent="1" source="KU4ls_06ufXbq-J6iHtu-7" target="KU4ls_06ufXbq-J6iHtu-8" edge="1">
          <mxGeometry width="50" height="50" relative="1" as="geometry">
            <mxPoint x="-1041.5" y="-1810" as="sourcePoint" />
            <mxPoint x="-1041.5" y="-1870" as="targetPoint" />
          </mxGeometry>
        </mxCell>
        <mxCell id="KU4ls_06ufXbq-J6iHtu-3" value="count" style="ellipse;whiteSpace=wrap;html=1;" parent="1" vertex="1">
          <mxGeometry x="-1009.75" y="-1850" width="65" height="30" as="geometry" />
        </mxCell>
        <mxCell id="KU4ls_06ufXbq-J6iHtu-7" value="Check-In" style="shape=ext;margin=3;double=1;whiteSpace=wrap;html=1;align=center;" parent="1" vertex="1">
          <mxGeometry x="-1106.5" y="-1790" width="100" height="40" as="geometry" />
        </mxCell>
        <mxCell id="KU4ls_06ufXbq-J6iHtu-8" value="&lt;span style=&quot;border-bottom: 1px dotted&quot;&gt;hour&lt;/span&gt;" style="ellipse;whiteSpace=wrap;html=1;align=center;" parent="1" vertex="1">
          <mxGeometry x="-1094.75" y="-1860" width="65" height="30" as="geometry" />
        </mxCell>
        <mxCell id="KU4ls_06ufXbq-J6iHtu-9" value="&lt;span style=&quot;border-bottom: 1px dotted&quot;&gt;day&lt;/span&gt;" style="ellipse;whiteSpace=wrap;html=1;align=center;" parent="1" vertex="1">
          <mxGeometry x="-1176.5" y="-1850" width="70" height="30" as="geometry" />
        </mxCell>
        <mxCell id="KU4ls_06ufXbq-J6iHtu-10" style="edgeStyle=orthogonalEdgeStyle;rounded=0;orthogonalLoop=1;jettySize=auto;html=1;exitX=0.5;exitY=1;exitDx=0;exitDy=0;" parent="1" source="KU4ls_06ufXbq-J6iHtu-8" target="KU4ls_06ufXbq-J6iHtu-8" edge="1">
          <mxGeometry relative="1" as="geometry" />
        </mxCell>
        <mxCell id="fqUfnXZrczNYxhRlF89O-3" value="" style="endArrow=none;html=1;rounded=0;entryX=0.5;entryY=1;entryDx=0;entryDy=0;" edge="1" parent="1" source="KU4ls_06ufXbq-J6iHtu-7" target="KU4ls_06ufXbq-J6iHtu-3">
          <mxGeometry width="50" height="50" relative="1" as="geometry">
            <mxPoint x="-1265" y="-1530" as="sourcePoint" />
            <mxPoint x="-1215" y="-1580" as="targetPoint" />
          </mxGeometry>
        </mxCell>
      </root>
    </mxGraphModel>
  </diagram>
</mxfile>
